<svg version="1.1" xmlns="http://www.w3.org/2000/svg" viewBox="0 0 6352.1778190562245 1762.2690522254659" width="12704.355638112449" height="3524.5381044509318">
  <!-- svg-source:excalidraw -->
  
  <defs>
    <style class="style-fonts">
      @font-face {
        font-family: "Virgil";
        src: url("https://excalidraw.com/Virgil.woff2");
      }
      @font-face {
        font-family: "Cascadia";
        src: url("https://excalidraw.com/Cascadia.woff2");
      }
      @font-face {
        font-family: "Assistant";
        src: url("https://excalidraw.com/Assistant-Regular.woff2");
      }
    </style>
    <clipPath id="_P707R8_EMvmgUiPb1HIl">
            <rect transform="translate(728.546875 518.5747573276578) rotate(0 368.70703125 437.416015625)" width="737.4140625" height="874.83203125">
          </rect>
        </clipPath><clipPath id="7_326F7L1UDp_YvdfkQZI">
            <rect transform="translate(1509.63671875 164.67595361672034) rotate(0 862.763671875 653.72265625)" width="1725.52734375" height="1307.4453125">
          </rect>
        </clipPath>
  </defs>
  <rect x="0" y="0" width="6352.1778190562245" height="1762.2690522254659" fill="#ffffff"></rect><g clip-path="url(#_P707R8_EMvmgUiPb1HIl)"><g transform="translate(953.04296875 690.9050795932828) rotate(0 189.60989379882812 12.5)"><text x="0" y="17.52" font-family="Virgil, Segoe UI Emoji" font-size="20px" fill="#1e1e1e" text-anchor="start" style="white-space: pre;" direction="ltr" dominant-baseline="alphabetic">TlsStream(包裹tcp，采用一个connector)</text></g></g><g clip-path="url(#_P707R8_EMvmgUiPb1HIl)"><g transform="translate(969.63671875 632.2488295932828) rotate(0 118.33988952636719 12.5)"><text x="0" y="17.52" font-family="Virgil, Segoe UI Emoji" font-size="20px" fill="#1e1e1e" text-anchor="start" style="white-space: pre;" direction="ltr" dominant-baseline="alphabetic">YamuxCtrol::clientstream</text></g></g><g clip-path="url(#_P707R8_EMvmgUiPb1HIl)"><g transform="translate(978.7265625 552.9666030307828) rotate(0 89.07991027832031 12.5)"><text x="0" y="17.52" font-family="Virgil, Segoe UI Emoji" font-size="20px" fill="#1e1e1e" text-anchor="start" style="white-space: pre;" direction="ltr" dominant-baseline="alphabetic">ProstClientStream</text></g></g><g clip-path="url(#_P707R8_EMvmgUiPb1HIl)"><g transform="translate(1024.30859375 934.3075454135953) rotate(0 95.6599349975586 12.5)"><text x="0" y="17.52" font-family="Virgil, Segoe UI Emoji" font-size="20px" fill="#1e1e1e" text-anchor="start" style="white-space: pre;" direction="ltr" dominant-baseline="alphabetic">TcpStream, 原始tcp</text></g></g><g clip-path="url(#_P707R8_EMvmgUiPb1HIl)"><g transform="translate(900.7734375 1171.7177016635953) rotate(0 181.97988891601562 12.5)"><text x="0" y="17.52" font-family="Virgil, Segoe UI Emoji" font-size="20px" fill="#1e1e1e" text-anchor="start" style="white-space: pre;" direction="ltr" dominant-baseline="alphabetic">TlsStream(包裹tcp，采用一个adopter)</text></g></g><g transform="translate(728.546875 498.07475732765784) rotate(0 22.791961669921875 8.75)"><text x="0" y="13.482" font-family="Assistant, Segoe UI Emoji" font-size="14px" fill="#999999" text-anchor="start" style="white-space: pre;" direction="ltr" dominant-baseline="alphabetic">Frame 1</text></g><rect transform="translate(728.546875 518.5747573276578) rotate(0 368.70703125 437.416015625)" width="737.4140625px" height="874.83203125px" rx="8" ry="8" fill="none" stroke="#bbb" stroke-width="2"></rect><g stroke-linecap="round" transform="translate(10 510.33476709328284) rotate(0 315.513671875 439.65039062500006)"><path d="M32 0 C214.68 1.47, 397.21 1.87, 599.03 0 M32 0 C202.73 -1.28, 372.67 -0.76, 599.03 0 M599.03 0 C621.42 0.62, 631.27 11.14, 631.03 32 M599.03 0 C621.01 0.71, 633.24 8.71, 631.03 32 M631.03 32 C633.17 213.69, 633.75 395.35, 631.03 847.3 M631.03 32 C630.84 232.95, 630.49 433.7, 631.03 847.3 M631.03 847.3 C633 870.09, 621.44 878.69, 599.03 879.3 M631.03 847.3 C632.85 866.38, 620.6 877.25, 599.03 879.3 M599.03 879.3 C384.64 880.45, 168.09 881.43, 32 879.3 M599.03 879.3 C416.02 881.24, 233.1 881.34, 32 879.3 M32 879.3 C11.53 879.84, -1.58 867.44, 0 847.3 M32 879.3 C12.37 879.09, 0.19 869.11, 0 847.3 M0 847.3 C-1.01 595.98, -1.66 343.35, 0 32 M0 847.3 C-1.32 638.26, -1.53 429.73, 0 32 M0 32 C-1.6 10.11, 10.95 0.08, 32 0 M0 32 C-0.2 12.87, 9.64 0.27, 32 0" stroke="#1e1e1e" stroke-width="2" fill="none"></path></g><g transform="translate(299.8836975097656 937.4851577182828) rotate(0 25.629974365234375 12.5)"><text x="25.629974365234375" y="17.52" font-family="Virgil, Segoe UI Emoji" font-size="20px" fill="#1e1e1e" text-anchor="middle" style="white-space: pre;" direction="ltr" dominant-baseline="alphabetic">client</text></g><g clip-path="url(#7_326F7L1UDp_YvdfkQZI)"><g stroke-linecap="round" transform="translate(1575.703125 649.7117723664448) rotate(0 188.33984375 177.466796875)"><path d="M32 0 C135.7 0.01, 236.36 -0.02, 344.68 0 M32 0 C150.05 -1.18, 268.03 -0.32, 344.68 0 M344.68 0 C365.11 1.09, 375.38 9.73, 376.68 32 M344.68 0 C367.63 2.22, 378.81 8.39, 376.68 32 M376.68 32 C376.9 92.18, 376.74 154.83, 376.68 322.93 M376.68 32 C378.09 135.85, 377.14 239.11, 376.68 322.93 M376.68 322.93 C374.81 344.35, 365.27 355.41, 344.68 354.93 M376.68 322.93 C378.01 342.78, 364.17 356.75, 344.68 354.93 M344.68 354.93 C268.48 352.99, 194.86 352.84, 32 354.93 M344.68 354.93 C265.96 356.75, 188.31 357.04, 32 354.93 M32 354.93 C12.21 355.74, -1.98 346.16, 0 322.93 M32 354.93 C9.7 353.77, 0.06 346.35, 0 322.93 M0 322.93 C0.12 224.19, -1.1 127.75, 0 32 M0 322.93 C0.54 210.98, 0.65 98.24, 0 32 M0 32 C0.94 11.02, 10.74 0.04, 32 0 M0 32 C-2.09 12.94, 12.31 1.39, 32 0" stroke="#1e1e1e" stroke-width="2" fill="none"></path></g></g><g clip-path="url(#7_326F7L1UDp_YvdfkQZI)"><g transform="translate(1619.7109375 621.6541030307828) rotate(0 30.84996795654297 12.5)"><text x="0" y="17.52" font-family="Virgil, Segoe UI Emoji" font-size="20px" fill="#1e1e1e" text-anchor="start" style="white-space: pre;" direction="ltr" dominant-baseline="alphabetic">Server</text></g></g><g clip-path="url(#7_326F7L1UDp_YvdfkQZI)"><g stroke-linecap="round" transform="translate(2297.8515625 288.26140283547034) rotate(0 416.9921875 466.767578125)"><path d="M32 0 C286.69 1.72, 542 1.64, 801.98 0 M32 0 C316.19 -2.35, 600.52 -1.83, 801.98 0 M801.98 0 C825.05 0.46, 832.45 8.72, 833.98 32 M801.98 0 C821.46 1.67, 832.29 11, 833.98 32 M833.98 32 C832.58 350.44, 833.12 667.7, 833.98 901.54 M833.98 32 C833.81 238.4, 833.54 444.31, 833.98 901.54 M833.98 901.54 C832.03 923.6, 824.88 931.65, 801.98 933.54 M833.98 901.54 C835.26 923.31, 822.68 933.02, 801.98 933.54 M801.98 933.54 C493.53 931.99, 185.29 931.91, 32 933.54 M801.98 933.54 C538.82 931.61, 275.65 931.97, 32 933.54 M32 933.54 C9.42 932.25, 0.95 924.29, 0 901.54 M32 933.54 C11.82 932.56, -0.19 923.86, 0 901.54 M0 901.54 C0.57 627.25, 0.41 351.53, 0 32 M0 901.54 C1.31 680.84, 1.21 460.91, 0 32 M0 32 C1.14 12.31, 9.48 -0.34, 32 0 M0 32 C-0.01 10.72, 8.54 1.48, 32 0" stroke="#1e1e1e" stroke-width="2" fill="none"></path></g></g><g clip-path="url(#7_326F7L1UDp_YvdfkQZI)"><g transform="translate(2318.76953125 305.12468408547034) rotate(0 121.2698974609375 12.5)"><text x="0" y="17.52" font-family="Virgil, Segoe UI Emoji" font-size="20px" fill="#1e1e1e" text-anchor="start" style="white-space: pre;" direction="ltr" dominant-baseline="alphabetic"> service excute command</text></g></g><g clip-path="url(#7_326F7L1UDp_YvdfkQZI)"><g stroke-linecap="round"><g transform="translate(1958.0777587890625 742.4149993499698) rotate(0 163.97088623046875 -122.20391180156932)"><path d="M-0.87 0.23 C53.74 -40.4, 273.68 -203.87, 328.66 -244.66 M0.87 -0.7 C55.3 -41.07, 273.43 -202.83, 328.09 -243.26" stroke="#1e1e1e" stroke-width="2" fill="none"></path></g><g transform="translate(1958.0777587890625 742.4149993499698) rotate(0 163.97088623046875 -122.20391180156932)"><path d="M314.3 -222.4 C320.07 -229.04, 324.51 -236.4, 328.09 -243.26 M314.3 -222.4 C317.28 -228.19, 322.33 -234.12, 328.09 -243.26" stroke="#1e1e1e" stroke-width="2" fill="none"></path></g><g transform="translate(1958.0777587890625 742.4149993499698) rotate(0 163.97088623046875 -122.20391180156932)"><path d="M304.12 -236.15 C313.67 -237.48, 321.97 -239.62, 328.09 -243.26 M304.12 -236.15 C310.15 -237.99, 318.18 -239.91, 328.09 -243.26" stroke="#1e1e1e" stroke-width="2" fill="none"></path></g></g><mask></mask></g><g clip-path="url(#7_326F7L1UDp_YvdfkQZI)"><g transform="translate(1610.16796875 690.4064223667203) rotate(0 167.71990966796875 125)"><text x="0" y="17.52" font-family="Virgil, Segoe UI Emoji" font-size="20px" fill="#1e1e1e" text-anchor="start" style="white-space: pre;" direction="ltr" dominant-baseline="alphabetic">1. listen</text><text x="0" y="42.519999999999996" font-family="Virgil, Segoe UI Emoji" font-size="20px" fill="#1e1e1e" text-anchor="start" style="white-space: pre;" direction="ltr" dominant-baseline="alphabetic">2. accept接受tcp</text><text x="0" y="67.52" font-family="Virgil, Segoe UI Emoji" font-size="20px" fill="#1e1e1e" text-anchor="start" style="white-space: pre;" direction="ltr" dominant-baseline="alphabetic">3. tcp转tlsStream</text><text x="0" y="92.52" font-family="Virgil, Segoe UI Emoji" font-size="20px" fill="#1e1e1e" text-anchor="start" style="white-space: pre;" direction="ltr" dominant-baseline="alphabetic">4. yamux包装tlstream</text><text x="0" y="117.52" font-family="Virgil, Segoe UI Emoji" font-size="20px" fill="#1e1e1e" text-anchor="start" style="white-space: pre;" direction="ltr" dominant-baseline="alphabetic">5. start task，将每一个YamuxCtrl</text><text x="0" y="142.52" font-family="Virgil, Segoe UI Emoji" font-size="20px" fill="#1e1e1e" text-anchor="start" style="white-space: pre;" direction="ltr" dominant-baseline="alphabetic">生成的Stream和Service包装成</text><text x="0" y="167.52" font-family="Virgil, Segoe UI Emoji" font-size="20px" fill="#1e1e1e" text-anchor="start" style="white-space: pre;" direction="ltr" dominant-baseline="alphabetic">一个ProstServerStream, </text><text x="0" y="192.52" font-family="Virgil, Segoe UI Emoji" font-size="20px" fill="#1e1e1e" text-anchor="start" style="white-space: pre;" direction="ltr" dominant-baseline="alphabetic">它的内部是ProstStream，</text><text x="0" y="217.52" font-family="Virgil, Segoe UI Emoji" font-size="20px" fill="#1e1e1e" text-anchor="start" style="white-space: pre;" direction="ltr" dominant-baseline="alphabetic">实现了trait: stream和sink, </text><text x="0" y="242.52" font-family="Virgil, Segoe UI Emoji" font-size="20px" fill="#1e1e1e" text-anchor="start" style="white-space: pre;" direction="ltr" dominant-baseline="alphabetic">自定义实现了frame </text></g></g><g clip-path="url(#7_326F7L1UDp_YvdfkQZI)"><g transform="translate(2077.65234375 599.3478286167203) rotate(0 73.1099624633789 25)"><text x="0" y="17.52" font-family="Virgil, Segoe UI Emoji" font-size="20px" fill="#1e1e1e" text-anchor="start" style="white-space: pre;" direction="ltr" dominant-baseline="alphabetic">需要给stream</text><text x="0" y="42.519999999999996" font-family="Virgil, Segoe UI Emoji" font-size="20px" fill="#1e1e1e" text-anchor="start" style="white-space: pre;" direction="ltr" dominant-baseline="alphabetic">提供这个service</text></g></g><g clip-path="url(#7_326F7L1UDp_YvdfkQZI)"><g transform="translate(1943.02734375 479.73064111672034) rotate(0 131.08985900878906 37.5)"><text x="0" y="17.52" font-family="Virgil, Segoe UI Emoji" font-size="20px" fill="#1e1e1e" text-anchor="start" style="white-space: pre;" direction="ltr" dominant-baseline="alphabetic">ProstServerstream.process</text><text x="0" y="42.519999999999996" font-family="Virgil, Segoe UI Emoji" font-size="20px" fill="#1e1e1e" text-anchor="start" style="white-space: pre;" direction="ltr" dominant-baseline="alphabetic">每次next将会得到一个</text><text x="0" y="67.52" font-family="Virgil, Segoe UI Emoji" font-size="20px" fill="#1e1e1e" text-anchor="start" style="white-space: pre;" direction="ltr" dominant-baseline="alphabetic">Command</text></g></g><g clip-path="url(#7_326F7L1UDp_YvdfkQZI)"><g stroke-linecap="round" transform="translate(2523.75 401.07170556984534) rotate(0 167.181640625 58.91015625)"><path d="M29.46 0 C96.39 2.24, 161.57 1.22, 304.91 0 M29.46 0 C98.62 -0.66, 166.88 -0.82, 304.91 0 M304.91 0 C325.61 0.06, 333.94 7.91, 334.36 29.46 M304.91 0 C326.24 -1.5, 332.89 7.93, 334.36 29.46 M334.36 29.46 C336.38 46.13, 336.19 65.43, 334.36 88.37 M334.36 29.46 C333.38 41.97, 334.98 54.53, 334.36 88.37 M334.36 88.37 C333.12 107.98, 325.23 116.36, 304.91 117.82 M334.36 88.37 C336.01 107.23, 324.46 115.88, 304.91 117.82 M304.91 117.82 C204.11 119.18, 103.36 117.67, 29.46 117.82 M304.91 117.82 C223.3 118.98, 142.51 119.06, 29.46 117.82 M29.46 117.82 C8.33 117.12, -1.74 109.55, 0 88.37 M29.46 117.82 C9.25 120.04, 0.78 108.36, 0 88.37 M0 88.37 C-1.27 77.91, 0.43 61.99, 0 29.46 M0 88.37 C-0.15 65.73, -0.43 44.77, 0 29.46 M0 29.46 C1.44 7.87, 11.73 -0.18, 29.46 0 M0 29.46 C2.28 8.3, 7.69 0.95, 29.46 0" stroke="#1e1e1e" stroke-width="2" fill="none"></path></g></g><g clip-path="url(#7_326F7L1UDp_YvdfkQZI)"><g transform="translate(2634.03125 444.19670556984534) rotate(0 40.51995849609375 12.5)"><text x="0" y="17.52" font-family="Virgil, Segoe UI Emoji" font-size="20px" fill="#1e1e1e" text-anchor="start" style="white-space: pre;" direction="ltr" dominant-baseline="alphabetic">dispatch</text></g></g><g clip-path="url(#7_326F7L1UDp_YvdfkQZI)"><g stroke-linecap="round"><g transform="translate(2684.930193892184 524.8369643589078) rotate(0 1.7829499289080104 38.736328125)"><path d="M-0.93 0.04 C-0.23 12.84, 3.66 64.43, 4.26 77.47 M0.78 -0.99 C1.39 11.96, 2.96 66.12, 3.68 79.01" stroke="#1e1e1e" stroke-width="2" fill="none"></path></g><g transform="translate(2684.930193892184 524.8369643589078) rotate(0 1.7829499289080104 38.736328125)"><path d="M-5.81 55.88 C-2.74 64.13, 0.07 68.45, 3.68 79.01 M-5.81 55.88 C-2.02 63.45, 1.76 73, 3.68 79.01" stroke="#1e1e1e" stroke-width="2" fill="none"></path></g><g transform="translate(2684.930193892184 524.8369643589078) rotate(0 1.7829499289080104 38.736328125)"><path d="M11.28 55.19 C9.17 63.51, 6.79 68.05, 3.68 79.01 M11.28 55.19 C8.8 63.18, 6.31 72.99, 3.68 79.01" stroke="#1e1e1e" stroke-width="2" fill="none"></path></g></g><mask></mask></g><g clip-path="url(#7_326F7L1UDp_YvdfkQZI)"><g stroke-linecap="round"><g transform="translate(2282.832931657018 500.5649215886225) rotate(0 112.63626854649101 -25.67452548985733)"><path d="M-0.77 0.3 C36.46 -8.07, 186.48 -42.99, 224.12 -51.41 M1.02 -0.58 C38.54 -8.65, 189.03 -41.34, 226.23 -49.9" stroke="#1e1e1e" stroke-width="2" fill="none"></path></g><g transform="translate(2282.832931657018 500.5649215886225) rotate(0 112.63626854649101 -25.67452548985733)"><path d="M205.16 -36.45 C213.42 -43.1, 220.43 -46.38, 226.23 -49.9 M205.16 -36.45 C214.35 -42.36, 222.58 -46.54, 226.23 -49.9" stroke="#1e1e1e" stroke-width="2" fill="none"></path></g><g transform="translate(2282.832931657018 500.5649215886225) rotate(0 112.63626854649101 -25.67452548985733)"><path d="M201.44 -53.14 C210.88 -53.73, 219.24 -50.97, 226.23 -49.9 M201.44 -53.14 C212.1 -52.47, 221.8 -50.05, 226.23 -49.9" stroke="#1e1e1e" stroke-width="2" fill="none"></path></g></g><mask></mask></g><g clip-path="url(#7_326F7L1UDp_YvdfkQZI)"><g transform="translate(2813.44921875 721.4268081089078) rotate(0 132.62991333007812 50)"><text x="0" y="17.52" font-family="Virgil, Segoe UI Emoji" font-size="20px" fill="#1e1e1e" text-anchor="start" style="white-space: pre;" direction="ltr" dominant-baseline="alphabetic">先dispath，如果处理不了的</text><text x="0" y="42.519999999999996" font-family="Virgil, Segoe UI Emoji" font-size="20px" fill="#1e1e1e" text-anchor="start" style="white-space: pre;" direction="ltr" dominant-baseline="alphabetic">就返回一个空的response，</text><text x="0" y="67.52" font-family="Virgil, Segoe UI Emoji" font-size="20px" fill="#1e1e1e" text-anchor="start" style="white-space: pre;" direction="ltr" dominant-baseline="alphabetic">再由dispatch_stream处理，</text><text x="0" y="92.52" font-family="Virgil, Segoe UI Emoji" font-size="20px" fill="#1e1e1e" text-anchor="start" style="white-space: pre;" direction="ltr" dominant-baseline="alphabetic"></text></g></g><g clip-path="url(#7_326F7L1UDp_YvdfkQZI)"><g stroke-linecap="round" transform="translate(2557.296875 615.9967543979703) rotate(0 137.072265625 68.072265625)"><path d="M172.5 17.25 C189.4 27.27, 204.19 32.23, 239.64 51.75 M172.5 17.25 C190.64 26.2, 207.54 35.12, 239.64 51.75 M239.64 51.75 C272.52 70.17, 275.97 70.07, 239.64 86.25 M239.64 51.75 C274.07 71.2, 273.3 69.36, 239.64 86.25 M239.64 86.25 C216.81 96.36, 197.28 108.84, 172.5 118.89 M239.64 86.25 C221.35 95.18, 202.35 103.51, 172.5 118.89 M172.5 118.89 C138.1 135.03, 138.81 137.73, 103.5 118.89 M172.5 118.89 C139.54 134.72, 139.18 134.56, 103.5 118.89 M103.5 118.89 C84.18 110.76, 66.36 104.32, 34.5 86.25 M103.5 118.89 C87.45 111.81, 72.72 103.78, 34.5 86.25 M34.5 86.25 C-1.25 69.58, 0.89 69.71, 34.5 51.75 M34.5 86.25 C-0.21 67.23, 0.33 66.79, 34.5 51.75 M34.5 51.75 C52.39 44.44, 64.8 34.29, 103.5 17.25 M34.5 51.75 C51.95 42.36, 69.24 33.37, 103.5 17.25 M103.5 17.25 C138.87 -0.04, 137.93 -0.08, 172.5 17.25 M103.5 17.25 C138.94 1.25, 138.26 -2.13, 172.5 17.25" stroke="#1e1e1e" stroke-width="2" fill="none"></path></g></g><g clip-path="url(#7_326F7L1UDp_YvdfkQZI)"><g transform="translate(2597.05859375 674.9108168979703) rotate(0 88.62992095947266 12.5)"><text x="0" y="17.52" font-family="Virgil, Segoe UI Emoji" font-size="20px" fill="#1e1e1e" text-anchor="start" style="white-space: pre;" direction="ltr" dominant-baseline="alphabetic">respone = default</text></g></g><g clip-path="url(#7_326F7L1UDp_YvdfkQZI)"><g mask="url(#mask-2nxZ6Dtctlq8z3xJO0fQV)" stroke-linecap="round"><g transform="translate(2738.8138331348578 738.3317956818585) rotate(0 46.85851517361766 51.662557483055934)"><path d="M-0.52 -0.68 C14.79 16.55, 76.84 86.62, 92.69 103.97 M1.42 1.58 C17.01 18.41, 79.39 84.99, 94.87 102.18" stroke="#1e1e1e" stroke-width="2" fill="none"></path></g><g transform="translate(2738.8138331348578 738.3317956818585) rotate(0 46.85851517361766 51.662557483055934)"><path d="M72.66 90.69 C79.84 93.35, 90.3 100.78, 94.87 102.18 M72.66 90.69 C80.36 94.39, 86.77 98.43, 94.87 102.18" stroke="#1e1e1e" stroke-width="2" fill="none"></path></g><g transform="translate(2738.8138331348578 738.3317956818585) rotate(0 46.85851517361766 51.662557483055934)"><path d="M85.24 79.11 C87.8 86.02, 93.58 97.76, 94.87 102.18 M85.24 79.11 C89.14 86.23, 91.72 93.8, 94.87 102.18" stroke="#1e1e1e" stroke-width="2" fill="none"></path></g></g><mask id="mask-2nxZ6Dtctlq8z3xJO0fQV"><rect x="0" y="0" fill="#fff" width="2932.530863482093" height="941.6569106479703"></rect><rect x="2764.572372722538" y="777.4943531649144" fill="#000" width="42.199951171875" height="25" opacity="1"></rect></mask></g><g clip-path="url(#7_326F7L1UDp_YvdfkQZI)"><g transform="translate(2764.5723727225377 777.4943531649144) rotate(0 21.4170011101387 12.481751413270828)"><text x="21.0999755859375" y="17.52" font-family="Virgil, Segoe UI Emoji" font-size="20px" fill="#1e1e1e" text-anchor="middle" style="white-space: pre;" direction="ltr" dominant-baseline="alphabetic">true</text></g></g><g clip-path="url(#7_326F7L1UDp_YvdfkQZI)"><g stroke-linecap="round"><g transform="translate(2659.37109375 749.0909926792203) rotate(0 -49.673828125 39.845703125)"><path d="M-0.49 -0.45 C-16.88 13.04, -81.63 67.12, -98.2 80.35 M1.46 -1.73 C-15.01 11.47, -81.47 64.98, -98.54 78.57" stroke="#1e1e1e" stroke-width="2" fill="none"></path></g><g transform="translate(2659.37109375 749.0909926792203) rotate(0 -49.673828125 39.845703125)"><path d="M-85.56 57.21 C-90.51 65.81, -92.76 69.72, -98.54 78.57 M-85.56 57.21 C-89.16 61.64, -91.65 68.15, -98.54 78.57" stroke="#1e1e1e" stroke-width="2" fill="none"></path></g><g transform="translate(2659.37109375 749.0909926792203) rotate(0 -49.673828125 39.845703125)"><path d="M-74.86 70.56 C-83.12 74.9, -88.74 74.61, -98.54 78.57 M-74.86 70.56 C-81.02 71.81, -86.03 75.18, -98.54 78.57" stroke="#1e1e1e" stroke-width="2" fill="none"></path></g></g><mask></mask></g><g clip-path="url(#7_326F7L1UDp_YvdfkQZI)"><g stroke-linecap="round" transform="translate(2361.97265625 855.0245864292203) rotate(0 129.27734375 47.041015625)"><path d="M23.52 0 C95.03 0.38, 166.3 -0.99, 235.03 0 M23.52 0 C75.41 0.1, 126.18 -0.55, 235.03 0 M235.03 0 C250.53 -0.43, 257.59 5.87, 258.55 23.52 M235.03 0 C252.99 -0.62, 259.86 5.59, 258.55 23.52 M258.55 23.52 C258.88 39.16, 259.41 54.76, 258.55 70.56 M258.55 23.52 C257.91 33.21, 259.54 42.82, 258.55 70.56 M258.55 70.56 C260.42 86.75, 249.36 94.62, 235.03 94.08 M258.55 70.56 C257.24 84.35, 252.57 92.84, 235.03 94.08 M235.03 94.08 C156.34 94.17, 77.27 96.81, 23.52 94.08 M235.03 94.08 C170.1 93.75, 103.83 93.96, 23.52 94.08 M23.52 94.08 C8.21 94.13, 0.8 85.87, 0 70.56 M23.52 94.08 C5.71 92.33, 0.85 84.83, 0 70.56 M0 70.56 C0.28 50.95, 1.51 33.63, 0 23.52 M0 70.56 C0.26 60.11, 0.62 52.09, 0 23.52 M0 23.52 C-0.24 8.94, 8.43 -0.34, 23.52 0 M0 23.52 C-0.21 6.08, 7.31 1.54, 23.52 0" stroke="#1e1e1e" stroke-width="2" fill="none"></path></g></g><g clip-path="url(#7_326F7L1UDp_YvdfkQZI)"><g transform="translate(2393.26953125 888.5636489292203) rotate(0 95.86990356445312 12.5)"><text x="0" y="17.52" font-family="Virgil, Segoe UI Emoji" font-size="20px" fill="#1e1e1e" text-anchor="start" style="white-space: pre;" direction="ltr" dominant-baseline="alphabetic">future::stream::once</text></g></g><g clip-path="url(#7_326F7L1UDp_YvdfkQZI)"><g transform="translate(2313.3671875 751.3097426792203) rotate(0 140.72991943359375 37.5)"><text x="0" y="17.52" font-family="Virgil, Segoe UI Emoji" font-size="20px" fill="#1e1e1e" text-anchor="start" style="white-space: pre;" direction="ltr" dominant-baseline="alphabetic">由于普通命令返回单个值，</text><text x="0" y="42.519999999999996" font-family="Virgil, Segoe UI Emoji" font-size="20px" fill="#1e1e1e" text-anchor="start" style="white-space: pre;" direction="ltr" dominant-baseline="alphabetic">pub/sub相关的返回一个stream</text><text x="0" y="67.52" font-family="Virgil, Segoe UI Emoji" font-size="20px" fill="#1e1e1e" text-anchor="start" style="white-space: pre;" direction="ltr" dominant-baseline="alphabetic">这里需要统一返回值</text></g></g><g clip-path="url(#7_326F7L1UDp_YvdfkQZI)"><g stroke-linecap="round"><g transform="translate(2518.77734375 963.5903823276578) rotate(0 69.4449923216539 59.080078125)"><path d="M-0.41 -0.06 C22.49 19.66, 114.57 98.55, 137.94 118.25 M1.58 -1.14 C24.8 18.8, 117.17 99.74, 140.16 119.84" stroke="#1e1e1e" stroke-width="2" fill="none"></path></g><g transform="translate(2518.77734375 963.5903823276578) rotate(0 69.4449923216539 59.080078125)"><path d="M116.85 110.8 C124.8 112.43, 133.12 118.64, 140.16 119.84 M116.85 110.8 C123.63 112.9, 130.6 116.29, 140.16 119.84" stroke="#1e1e1e" stroke-width="2" fill="none"></path></g><g transform="translate(2518.77734375 963.5903823276578) rotate(0 69.4449923216539 59.080078125)"><path d="M128.11 97.93 C132.15 103.97, 136.59 114.64, 140.16 119.84 M128.11 97.93 C131.57 103.84, 135.17 111.09, 140.16 119.84" stroke="#1e1e1e" stroke-width="2" fill="none"></path></g></g><mask></mask></g><g clip-path="url(#7_326F7L1UDp_YvdfkQZI)"><g stroke-linecap="round"><g transform="translate(2875.58203125 979.1997573276578) rotate(0 -98.98955219675872 53.853515625)"><path d="M-0.56 0.5 C-33.4 18.52, -165.2 90.42, -198.14 108.25 M1.35 -0.28 C-31.57 17.37, -165.77 88.25, -199.18 106.41" stroke="#1e1e1e" stroke-width="2" fill="none"></path></g><g transform="translate(2875.58203125 979.1997573276578) rotate(0 -98.98955219675872 53.853515625)"><path d="M-182.49 87.79 C-185.11 91.31, -188.52 95.09, -199.18 106.41 M-182.49 87.79 C-186.74 92.25, -191.19 98.98, -199.18 106.41" stroke="#1e1e1e" stroke-width="2" fill="none"></path></g><g transform="translate(2875.58203125 979.1997573276578) rotate(0 -98.98955219675872 53.853515625)"><path d="M-174.43 102.87 C-178.74 103.22, -183.83 103.86, -199.18 106.41 M-174.43 102.87 C-181.08 103.13, -187.78 105.64, -199.18 106.41" stroke="#1e1e1e" stroke-width="2" fill="none"></path></g></g><mask></mask></g><g clip-path="url(#7_326F7L1UDp_YvdfkQZI)"><g transform="translate(2399.51171875 1124.2476088901578) rotate(0 316.1297607421875 25)"><text x="0" y="17.52" font-family="Virgil, Segoe UI Emoji" font-size="20px" fill="#1e1e1e" text-anchor="start" style="white-space: pre;" direction="ltr" dominant-baseline="alphabetic">Pin&lt;Box&lt;dyn Stream&lt;Item = Arc&lt;CommandResponse&gt;&gt; + Send &gt;&gt;;</text><text x="0" y="42.519999999999996" font-family="Virgil, Segoe UI Emoji" font-size="20px" fill="#1e1e1e" text-anchor="start" style="white-space: pre;" direction="ltr" dominant-baseline="alphabetic"></text></g></g><g clip-path="url(#7_326F7L1UDp_YvdfkQZI)"><g stroke-linecap="round" transform="translate(2369.3359375 1098.8062026401578) rotate(0 342.11328125 36.138671875)"><path d="M18.07 0 C183.23 -1.35, 347.75 -0.87, 666.16 0 M18.07 0 C223.56 -1.15, 429.13 -1.56, 666.16 0 M666.16 0 C678.29 0.18, 685.2 6.81, 684.23 18.07 M666.16 0 C679.73 1.32, 683.79 3.9, 684.23 18.07 M684.23 18.07 C685.47 26.99, 683.13 35.61, 684.23 54.21 M684.23 18.07 C683.96 24.7, 684.52 33.02, 684.23 54.21 M684.23 54.21 C682.92 64.8, 676.55 72.86, 666.16 72.28 M684.23 54.21 C682.01 66.83, 675.95 72.16, 666.16 72.28 M666.16 72.28 C441.64 70.66, 217.17 70.25, 18.07 72.28 M666.16 72.28 C474.61 71.53, 283.13 72, 18.07 72.28 M18.07 72.28 C4.06 72.17, -1.09 64.6, 0 54.21 M18.07 72.28 C8.28 70.9, 1.84 66.25, 0 54.21 M0 54.21 C-1.44 47.93, -1.89 38.26, 0 18.07 M0 54.21 C0.04 41.32, -0.29 30.9, 0 18.07 M0 18.07 C-0.43 4.56, 7.41 0.31, 18.07 0 M0 18.07 C1.31 7.17, 3.79 -1.24, 18.07 0" stroke="#1e1e1e" stroke-width="2" fill="none"></path></g></g><g clip-path="url(#7_326F7L1UDp_YvdfkQZI)"><g stroke-linecap="round"><g transform="translate(2376.875 1179.6829116245328) rotate(0 -154.513671875 -5.94140625)"><path d="M-0.93 0.65 C-52.57 -1.11, -257.95 -9.2, -309.28 -11.31 M0.79 -0.06 C-51.09 -2.1, -258.62 -11.34, -310.36 -13.12" stroke="#1e1e1e" stroke-width="2" fill="none"></path></g><g transform="translate(2376.875 1179.6829116245328) rotate(0 -154.513671875 -5.94140625)"><path d="M-286.54 -20.73 C-293.8 -18.68, -302.21 -15.43, -310.36 -13.12 M-286.54 -20.73 C-293.27 -18.11, -300.44 -16.79, -310.36 -13.12" stroke="#1e1e1e" stroke-width="2" fill="none"></path></g><g transform="translate(2376.875 1179.6829116245328) rotate(0 -154.513671875 -5.94140625)"><path d="M-287.23 -3.64 C-294.14 -7.54, -302.3 -10.23, -310.36 -13.12 M-287.23 -3.64 C-293.8 -5.96, -300.77 -9.58, -310.36 -13.12" stroke="#1e1e1e" stroke-width="2" fill="none"></path></g></g><mask></mask></g><g clip-path="url(#7_326F7L1UDp_YvdfkQZI)"><g transform="translate(2172.86328125 1138.8665053745328) rotate(0 21.40998077392578 12.5)"><text x="0" y="17.52" font-family="Virgil, Segoe UI Emoji" font-size="20px" fill="#1e1e1e" text-anchor="start" style="white-space: pre;" direction="ltr" dominant-baseline="alphabetic">next</text></g></g><g clip-path="url(#7_326F7L1UDp_YvdfkQZI)"><g stroke-linecap="round" transform="translate(1666.32421875 1116.4250991245328) rotate(0 155.71484375 45.5859375)"><path d="M22.79 0 C106.56 0.44, 187.23 -0.97, 288.64 0 M22.79 0 C104.66 -0.39, 185.91 -0.72, 288.64 0 M288.64 0 C305.46 0.05, 310.45 9.31, 311.43 22.79 M288.64 0 C302.8 1.65, 313.62 6.57, 311.43 22.79 M311.43 22.79 C310.9 41.47, 313.5 58.89, 311.43 68.38 M311.43 22.79 C311.07 33.95, 310.54 45.57, 311.43 68.38 M311.43 68.38 C309.95 81.93, 303.64 91.4, 288.64 91.17 M311.43 68.38 C313.42 81.94, 303.45 92.32, 288.64 91.17 M288.64 91.17 C223.47 92.85, 161.98 94.56, 22.79 91.17 M288.64 91.17 C209.22 90.82, 130.38 91.5, 22.79 91.17 M22.79 91.17 C9.2 90.14, 1.31 85.02, 0 68.38 M22.79 91.17 C8.87 89.23, -2.04 85.19, 0 68.38 M0 68.38 C0.09 53.99, -1.56 35.23, 0 22.79 M0 68.38 C0.61 52.32, -0.1 35.79, 0 22.79 M0 22.79 C1.78 6.24, 7.1 1.38, 22.79 0 M0 22.79 C-0.99 7.68, 7.84 1.6, 22.79 0" stroke="#1e1e1e" stroke-width="2" fill="none"></path></g></g><g clip-path="url(#7_326F7L1UDp_YvdfkQZI)"><g transform="translate(1758.55859375 1152.9250991245328) rotate(0 85.38992309570312 12.5)"><text x="0" y="17.52" font-family="Virgil, Segoe UI Emoji" font-size="20px" fill="#1e1e1e" text-anchor="start" style="white-space: pre;" direction="ltr" dominant-baseline="alphabetic">CommandResponse</text></g></g><g clip-path="url(#7_326F7L1UDp_YvdfkQZI)"><g stroke-linecap="round"><g transform="translate(1510.15234375 1140.7762954135953) rotate(0 77.109375 3.291015625)"><path d="M1.14 -0.99 C26.95 0.02, 128.73 4.46, 154.28 5.79 M0.28 1.1 C25.99 2.27, 127.78 6.29, 153.36 6.9" stroke="#1e1e1e" stroke-width="2" fill="none"></path></g></g><mask></mask></g><g clip-path="url(#7_326F7L1UDp_YvdfkQZI)"><g transform="translate(1552.42578125 237.62993310890784) rotate(0 312.43975830078125 25)"><text x="0" y="17.52" font-family="Virgil, Segoe UI Emoji" font-size="20px" fill="#1e1e1e" text-anchor="start" style="white-space: pre;" direction="ltr" dominant-baseline="alphabetic">    inner: ProstStream&lt;S, CommandRequest, CommandResponse&gt;,</text><text x="0" y="42.519999999999996" font-family="Virgil, Segoe UI Emoji" font-size="20px" fill="#1e1e1e" text-anchor="start" style="white-space: pre;" direction="ltr" dominant-baseline="alphabetic">    service: Service,</text></g></g><g clip-path="url(#7_326F7L1UDp_YvdfkQZI)"><g stroke-linecap="round"><g transform="translate(1748.2890625 283.70110010109534) rotate(0 271.947265625 22.859375)"><path d="M-1.13 -0.97 C89.7 6.38, 453.8 36.96, 544.68 44.71" stroke="#1e1e1e" stroke-width="2.5" fill="none" stroke-dasharray="1.5 8"></path></g><g transform="translate(1748.2890625 283.70110010109534) rotate(0 271.947265625 22.859375)"><path d="M520.55 51.25 C525.48 51, 531.97 48.33, 544.68 44.71" stroke="#1e1e1e" stroke-width="2.5" fill="none" stroke-dasharray="1.5 6"></path></g><g transform="translate(1748.2890625 283.70110010109534) rotate(0 271.947265625 22.859375)"><path d="M521.99 34.21 C526.61 38.59, 532.72 40.56, 544.68 44.71" stroke="#1e1e1e" stroke-width="2.5" fill="none" stroke-dasharray="1.5 6"></path></g></g><mask></mask></g><g clip-path="url(#7_326F7L1UDp_YvdfkQZI)"><g stroke-linecap="round"><g transform="translate(1593.08203125 252.29875635109534) rotate(0 -25.712890625 183.85622724595598)"><path d="M0.79 0.6 C-7.82 18.4, -49.76 46.67, -51.41 107.88 C-53.05 169.08, -16.23 324.47, -9.08 367.85" stroke="#1e1e1e" stroke-width="2.5" fill="none" stroke-dasharray="1.5 8"></path></g><g transform="translate(1593.08203125 252.29875635109534) rotate(0 -25.712890625 183.85622724595598)"><path d="M-22.03 346.47 C-16.73 353.19, -14.42 359.22, -9.08 367.85" stroke="#1e1e1e" stroke-width="2.5" fill="none" stroke-dasharray="1.5 6"></path></g><g transform="translate(1593.08203125 252.29875635109534) rotate(0 -25.712890625 183.85622724595598)"><path d="M-5.26 343.15 C-5.24 351.03, -8.24 358.11, -9.08 367.85" stroke="#1e1e1e" stroke-width="2.5" fill="none" stroke-dasharray="1.5 6"></path></g></g><mask></mask></g><g transform="translate(1509.63671875 144.17595361672034) rotate(0 54.71892547607422 8.75)"><text x="0" y="13.482" font-family="Assistant, Segoe UI Emoji" font-size="14px" fill="#999999" text-anchor="start" style="white-space: pre;" direction="ltr" dominant-baseline="alphabetic">ProstServerStream</text></g><rect transform="translate(1509.63671875 164.67595361672034) rotate(0 862.763671875 653.72265625)" width="1725.52734375px" height="1307.4453125px" rx="8" ry="8" fill="none" stroke="#bbb" stroke-width="2"></rect><g clip-path="url(#7_326F7L1UDp_YvdfkQZI)"><g stroke-linecap="round" transform="translate(2736.478515625 851.2904555698453) rotate(0 167.181640625 58.91015625)"><path d="M29.46 0 C111.7 -0.95, 195.8 0.4, 304.91 0 M29.46 0 C98.91 0.64, 169.7 1.31, 304.91 0 M304.91 0 C322.78 -0.47, 335.9 10.9, 334.36 29.46 M304.91 0 C326.1 0.91, 334.26 8.9, 334.36 29.46 M334.36 29.46 C334.55 45.41, 332.81 63.08, 334.36 88.37 M334.36 29.46 C334.91 48.28, 333.92 65.7, 334.36 88.37 M334.36 88.37 C332.4 107.76, 323.34 118.22, 304.91 117.82 M334.36 88.37 C333.05 109.89, 325.33 116.84, 304.91 117.82 M304.91 117.82 C235.35 120.53, 166.9 118.93, 29.46 117.82 M304.91 117.82 C206.01 115.07, 106.73 116.09, 29.46 117.82 M29.46 117.82 C8.19 117.75, 1.86 106, 0 88.37 M29.46 117.82 C8.77 120.01, -0.73 109.02, 0 88.37 M0 88.37 C-0.91 65.48, 1.72 43.68, 0 29.46 M0 88.37 C-0.52 69.98, -0.67 49.85, 0 29.46 M0 29.46 C1.87 11.69, 10.48 -1.43, 29.46 0 M0 29.46 C1.74 12.04, 11.08 -0.88, 29.46 0" stroke="#1e1e1e" stroke-width="2" fill="none"></path></g></g><g clip-path="url(#7_326F7L1UDp_YvdfkQZI)"><g transform="translate(2798.669921875 897.3217055698453) rotate(0 82.62992095947266 12.5)"><text x="0" y="17.52" font-family="Virgil, Segoe UI Emoji" font-size="20px" fill="#1e1e1e" text-anchor="start" style="white-space: pre;" direction="ltr" dominant-baseline="alphabetic">dispatch_stream</text></g></g><g mask="url(#mask-9RmV8J_ZY6vOh-Cqn174o)" stroke-linecap="round"><g transform="translate(1510.9530817213054 1142.4053747390813) rotate(0 -431.29490023565273 1.027200949432597)"><path d="M0.34 0.03 C-143.47 0.49, -719.25 2.22, -863.18 2.5 M-0.94 -1 C-144.33 -0.88, -716.87 -0.04, -860.77 0.62" stroke="#1e1e1e" stroke-width="2" fill="none"></path></g><g transform="translate(1510.9530817213054 1142.4053747390813) rotate(0 -431.29490023565273 1.027200949432597)"><path d="M-837.3 -8 C-843.74 -6.54, -849.49 -4.25, -860.77 0.62 M-837.3 -8 C-843.56 -5.52, -849.24 -3.92, -860.77 0.62" stroke="#1e1e1e" stroke-width="2" fill="none"></path></g><g transform="translate(1510.9530817213054 1142.4053747390813) rotate(0 -431.29490023565273 1.027200949432597)"><path d="M-837.25 9.1 C-843.66 5.86, -849.43 3.44, -860.77 0.62 M-837.25 9.1 C-843.66 6.87, -849.35 3.75, -860.77 0.62" stroke="#1e1e1e" stroke-width="2" fill="none"></path></g></g><mask id="mask-9RmV8J_ZY6vOh-Cqn174o"><rect x="0" y="0" fill="#fff" width="2473.5428821926107" height="1244.4597766379466"></rect><rect x="967.3582776160237" y="1130.9325756885137" fill="#000" width="224.5998077392578" height="25" opacity="1"></rect></mask><g transform="translate(967.3582776160238 1130.932575688514) rotate(0 112.17742533572016 12.22308886068879)"><text x="112.2999038696289" y="17.52" font-family="Virgil, Segoe UI Emoji" font-size="20px" fill="#1e1e1e" text-anchor="middle" style="white-space: pre;" direction="ltr" dominant-baseline="alphabetic">Sned CommandResponse</text></g><g clip-path="url(#_P707R8_EMvmgUiPb1HIl)"><g transform="translate(1291.74609375 1099.8700454135953) rotate(0 67.74993896484375 12.5)"><text x="0" y="17.52" font-family="Virgil, Segoe UI Emoji" font-size="20px" fill="#1e1e1e" text-anchor="start" style="white-space: pre;" direction="ltr" dominant-baseline="alphabetic">encode_frame</text></g></g><g clip-path="url(#_P707R8_EMvmgUiPb1HIl)"><g transform="translate(765.5625 1077.6864516635953) rotate(0 68.76993560791016 12.5)"><text x="0" y="17.52" font-family="Virgil, Segoe UI Emoji" font-size="20px" fill="#1e1e1e" text-anchor="start" style="white-space: pre;" direction="ltr" dominant-baseline="alphabetic">decode_frame</text></g></g><g clip-path="url(#_P707R8_EMvmgUiPb1HIl)"><g transform="translate(1302.1239395141602 830.3075454135953) rotate(0 68.76993560791016 12.5)"><text x="0" y="17.52" font-family="Virgil, Segoe UI Emoji" font-size="20px" fill="#1e1e1e" text-anchor="start" style="white-space: pre;" direction="ltr" dominant-baseline="alphabetic">decode_frame</text></g></g><g clip-path="url(#_P707R8_EMvmgUiPb1HIl)"><g transform="translate(754.5345611572266 772.8700454135953) rotate(0 67.74993896484375 12.5)"><text x="0" y="17.52" font-family="Virgil, Segoe UI Emoji" font-size="20px" fill="#1e1e1e" text-anchor="start" style="white-space: pre;" direction="ltr" dominant-baseline="alphabetic">encode_frame</text></g></g><g clip-path="url(#_P707R8_EMvmgUiPb1HIl)"><g mask="url(#mask-U31s4Nak1c-2Wjfxd8bRl)" stroke-linecap="round"><g transform="translate(652.171875 818.1496733296137) rotate(0 429.6640625 -3.302734375)"><path d="M0.16 0.33 C65.97 -0.9, 252.64 -6.28, 396.03 -6.48 C539.42 -6.69, 783.44 -1.78, 860.49 -0.91 M-1.21 -0.54 C64.33 -1.64, 251.47 -5, 395.06 -4.88 C538.65 -4.76, 783.17 -0.55, 860.33 0.17" stroke="#1e1e1e" stroke-width="2" fill="none"></path></g><g transform="translate(652.171875 818.1496733296137) rotate(0 429.6640625 -3.302734375)"><path d="M836.73 8.42 C846.64 5, 855.72 3.73, 860.33 0.17 M836.73 8.42 C843.48 7.24, 849.74 4.04, 860.33 0.17" stroke="#1e1e1e" stroke-width="2" fill="none"></path></g><g transform="translate(652.171875 818.1496733296137) rotate(0 429.6640625 -3.302734375)"><path d="M836.95 -8.68 C846.9 -5.27, 855.89 0.28, 860.33 0.17 M836.95 -8.68 C843.5 -5.39, 849.7 -4.12, 860.33 0.17" stroke="#1e1e1e" stroke-width="2" fill="none"></path></g></g><mask id="mask-U31s4Nak1c-2Wjfxd8bRl"><rect x="0" y="0" fill="#fff" width="1611.5" height="924.7551420796137"></rect><rect x="934.9540023803711" y="799.0442045796137" fill="#000" width="226.5998077392578" height="25" opacity="1"></rect></mask></g><g clip-path="url(#_P707R8_EMvmgUiPb1HIl)"><g transform="translate(934.9540023803711 799.0442045796137) rotate(0 146.85526771289307 16.0257452477027)"><text x="113.2999038696289" y="17.52" font-family="Virgil, Segoe UI Emoji" font-size="20px" fill="#1e1e1e" text-anchor="middle" style="white-space: pre;" direction="ltr" dominant-baseline="alphabetic">send CommandResquest</text></g></g><g stroke-linecap="round"><g transform="translate(1471.1250000000002 817.4135098603027) rotate(0 49.62695312499983 -2.403147264844023)"><path d="M0.77 0.35 C17.47 -0.47, 83.18 -3.97, 99.71 -4.91 M-0.28 -0.52 C16.34 -1.13, 82.37 -2.81, 99 -3.43" stroke="#1e1e1e" stroke-width="2" fill="none"></path></g><g transform="translate(1471.1250000000002 817.4135098603027) rotate(0 49.62695312499983 -2.403147264844023)"><path d="M75.78 5.84 C82.4 4.03, 87.7 1.96, 99 -3.43 M75.78 5.84 C82.48 4.24, 87.22 1.03, 99 -3.43" stroke="#1e1e1e" stroke-width="2" fill="none"></path></g><g transform="translate(1471.1250000000002 817.4135098603027) rotate(0 49.62695312499983 -2.403147264844023)"><path d="M75.25 -11.25 C82.01 -8.62, 87.44 -6.24, 99 -3.43 M75.25 -11.25 C82.24 -8.41, 87.13 -7.17, 99 -3.43" stroke="#1e1e1e" stroke-width="2" fill="none"></path></g></g><mask></mask><g stroke-linecap="round"><g transform="translate(647.09375 817.1356704135953) rotate(0 38.857421875 -0.171875)"><path d="M-0.42 -1.2 C12.6 -1.46, 63.84 -1.51, 76.92 -1.48 M1.56 0.79 C15.06 0.62, 66.56 -0.4, 79.22 -0.54" stroke="#1e1e1e" stroke-width="2" fill="none"></path></g></g><mask></mask><g clip-path="url(#_P707R8_EMvmgUiPb1HIl)"><g transform="translate(936.4697723388672 1234.6708266635953) rotate(0 124.20988464355469 12.5)"><text x="0" y="17.52" font-family="Virgil, Segoe UI Emoji" font-size="20px" fill="#1e1e1e" text-anchor="start" style="white-space: pre;" direction="ltr" dominant-baseline="alphabetic">YamuxCtrol::ServerStream</text></g></g><g clip-path="url(#_P707R8_EMvmgUiPb1HIl)"><g transform="translate(966.8849334716797 1280.4751479526578) rotate(0 92.8799057006836 12.5)"><text x="0" y="17.52" font-family="Virgil, Segoe UI Emoji" font-size="20px" fill="#1e1e1e" text-anchor="start" style="white-space: pre;" direction="ltr" dominant-baseline="alphabetic">ProstServerStream</text></g></g><g transform="translate(389.8458709716797 455.93852685890784) rotate(0 89.07991027832031 12.5)"><text x="0" y="17.52" font-family="Virgil, Segoe UI Emoji" font-size="20px" fill="#1e1e1e" text-anchor="start" style="white-space: pre;" direction="ltr" dominant-baseline="alphabetic">ProstClientStream</text></g><g transform="translate(31.578125 572.2656752964078) rotate(0 297.43975830078125 12.5)"><text x="0" y="17.52" font-family="Virgil, Segoe UI Emoji" font-size="20px" fill="#1e1e1e" text-anchor="start" style="white-space: pre;" direction="ltr" dominant-baseline="alphabetic">inner: ProstStream&lt;S, CommandResponse,  CommandRequest&gt;,</text></g><g stroke-linecap="round" transform="translate(3517.0369047932113 144.34270472557898) rotate(0 963.4805083806384 803.9631737499435)"><path d="M32 0 C695.03 5.36, 1358.9 5.59, 1894.96 0 M32 0 C694.48 2.21, 1356.56 2.58, 1894.96 0 M1894.96 0 C1916.62 -1.93, 1927.02 10.42, 1926.96 32 M1894.96 0 C1916.71 -1.63, 1924.88 12.41, 1926.96 32 M1926.96 32 C1927.62 435.23, 1927.44 837.76, 1926.96 1575.93 M1926.96 32 C1930.98 435.62, 1931.26 839.07, 1926.96 1575.93 M1926.96 1575.93 C1928.96 1599.25, 1917.83 1608.24, 1894.96 1607.93 M1926.96 1575.93 C1925.71 1598.91, 1915.62 1608.36, 1894.96 1607.93 M1894.96 1607.93 C1455.37 1615.62, 1016.4 1615.54, 32 1607.93 M1894.96 1607.93 C1230.12 1607.34, 564.8 1607.53, 32 1607.93 M32 1607.93 C12.31 1606.58, -0.83 1598.2, 0 1575.93 M32 1607.93 C8.55 1606.54, 0.92 1596.98, 0 1575.93 M0 1575.93 C-2.02 1164.73, -1.81 753.8, 0 32 M0 1575.93 C5.4 977.77, 5.86 379.88, 0 32 M0 32 C1.79 10.66, 9.03 1.86, 32 0 M0 32 C-1.64 12.94, 10.73 -1.32, 32 0" stroke="#1e1e1e" stroke-width="2" fill="none"></path></g><g stroke-linecap="round" transform="translate(4576.648565051256 299.01363196337957) rotate(0 374.3306830658953 332.51220703125)"><path d="M32 0 C235.01 1.3, 436.09 -0.01, 716.66 0 M32 0 C187.73 -1, 343.67 -0.62, 716.66 0 M716.66 0 C736.07 -1.16, 748.45 8.7, 748.66 32 M716.66 0 C738.54 1.13, 748.64 9.38, 748.66 32 M748.66 32 C749.15 236.9, 749.01 442.56, 748.66 633.02 M748.66 32 C748.85 203.14, 748.98 374.27, 748.66 633.02 M748.66 633.02 C749.74 652.62, 739.28 666.31, 716.66 665.02 M748.66 633.02 C750.09 653.59, 738.33 665.27, 716.66 665.02 M716.66 665.02 C453.93 663.92, 189.38 662.55, 32 665.02 M716.66 665.02 C519.35 662.93, 322.52 662.57, 32 665.02 M32 665.02 C9.64 666.01, 1.21 653.46, 0 633.02 M32 665.02 C10.93 664.22, -0.85 655.05, 0 633.02 M0 633.02 C-0.95 428.71, -1.64 224.53, 0 32 M0 633.02 C0.31 411.42, 0.09 190.19, 0 32 M0 32 C-0.08 9.16, 11.06 -0.36, 32 0 M0 32 C1.98 10.59, 12.37 -2.16, 32 0" stroke="#1e1e1e" stroke-width="2" fill="none"></path></g><g transform="translate(4663.337131423824 328.482147231073) rotate(0 140 37.5)"><text x="0" y="17.52" font-family="Virgil, Segoe UI Emoji" font-size="20px" fill="#1e1e1e" text-anchor="start" style="white-space: pre;" direction="ltr" dominant-baseline="alphabetic">ServiceInner&lt;Store&gt;</text><text x="0" y="42.519999999999996" font-family="Virgil, Segoe UI Emoji" font-size="20px" fill="#1e1e1e" text-anchor="start" style="white-space: pre;" direction="ltr" dominant-baseline="alphabetic"></text><text x="0" y="67.52" font-family="Virgil, Segoe UI Emoji" font-size="20px" fill="#1e1e1e" text-anchor="start" style="white-space: pre;" direction="ltr" dominant-baseline="alphabetic">分成两部分，通知和存储的实现</text></g><g transform="translate(3593.607185908323 163.32626342773438) rotate(0 33.75996398925781 12.5)"><text x="0" y="17.52" font-family="Virgil, Segoe UI Emoji" font-size="20px" fill="#1e1e1e" text-anchor="start" style="white-space: pre;" direction="ltr" dominant-baseline="alphabetic">Service</text></g><g stroke-linecap="round" transform="translate(4661.555152278808 1431.1168411204844) rotate(0 307.802634284297 106.19681025753692)"><path d="M32 0 C208.43 -1.92, 386.32 -1.77, 583.61 0 M32 0 C174.41 -0.24, 317.28 0.08, 583.61 0 M583.61 0 C603.95 0.48, 614.49 11.91, 615.61 32 M583.61 0 C604.94 -1.97, 615.77 10.51, 615.61 32 M615.61 32 C615.59 74.96, 617.44 115.37, 615.61 180.39 M615.61 32 C616.35 87.18, 616.43 141.56, 615.61 180.39 M615.61 180.39 C615.9 202, 606.23 211.51, 583.61 212.39 M615.61 180.39 C613.4 199.43, 604.94 210.1, 583.61 212.39 M583.61 212.39 C402.2 213.29, 220.08 213.7, 32 212.39 M583.61 212.39 C427.05 213.69, 270.11 214.4, 32 212.39 M32 212.39 C11.03 212.48, 1.42 202.45, 0 180.39 M32 212.39 C9.43 212.98, -1.88 203.78, 0 180.39 M0 180.39 C0.33 129.14, -0.33 75.56, 0 32 M0 180.39 C-0.36 136.51, -0.79 94.21, 0 32 M0 32 C0.32 12.32, 11.17 -1.19, 32 0 M0 32 C0.11 11.12, 9.81 0.54, 32 0" stroke="#1e1e1e" stroke-width="2" fill="none"></path></g><g transform="translate(4718.123409609923 1467.3788199926375) rotate(0 63.42994689941406 12.5)"><text x="0" y="17.52" font-family="Virgil, Segoe UI Emoji" font-size="20px" fill="#1e1e1e" text-anchor="start" style="white-space: pre;" direction="ltr" dominant-baseline="alphabetic">BoardCaster</text></g><g transform="translate(4712.271099815236 490.25277303028497) rotate(0 142.9598846435547 50)"><text x="0" y="17.52" font-family="Virgil, Segoe UI Emoji" font-size="20px" fill="#1e1e1e" text-anchor="start" style="white-space: pre;" direction="ltr" dominant-baseline="alphabetic"> on_received: Vec::new(), </text><text x="0" y="42.519999999999996" font-family="Virgil, Segoe UI Emoji" font-size="20px" fill="#1e1e1e" text-anchor="start" style="white-space: pre;" direction="ltr" dominant-baseline="alphabetic"> on_executed: Vec::new(), </text><text x="0" y="67.52" font-family="Virgil, Segoe UI Emoji" font-size="20px" fill="#1e1e1e" text-anchor="start" style="white-space: pre;" direction="ltr" dominant-baseline="alphabetic"> on_before_send: Vec::new(), </text><text x="0" y="92.52" font-family="Virgil, Segoe UI Emoji" font-size="20px" fill="#1e1e1e" text-anchor="start" style="white-space: pre;" direction="ltr" dominant-baseline="alphabetic"> on_after_send: Vec::new() </text></g><g transform="translate(4726.782818565236 614.105312092785) rotate(0 183.10995483398438 25)"><text x="0" y="17.52" font-family="Virgil, Segoe UI Emoji" font-size="20px" fill="#1e1e1e" text-anchor="start" style="white-space: pre;" direction="ltr" dominant-baseline="alphabetic">给Vec实现了Notify的trait,</text><text x="0" y="42.519999999999996" font-family="Virgil, Segoe UI Emoji" font-size="20px" fill="#1e1e1e" text-anchor="start" style="white-space: pre;" direction="ltr" dominant-baseline="alphabetic">在service执行的过程中执行一些通知方法</text></g><g stroke-linecap="round" transform="translate(4707.959576377736 467.75277303028497) rotate(0 209.1455078125 108.21044921875)"><path d="M32 0 C149.66 0.5, 265.93 0.03, 386.29 0 M32 0 C151.95 0.32, 273.32 -0.11, 386.29 0 M386.29 0 C406.65 0.23, 419.14 12, 418.29 32 M386.29 0 C407.11 -0.01, 417.69 9.4, 418.29 32 M418.29 32 C417.64 80.07, 419.17 125.1, 418.29 184.42 M418.29 32 C418.91 74.34, 419.01 117.41, 418.29 184.42 M418.29 184.42 C419.24 206.75, 408.84 215.67, 386.29 216.42 M418.29 184.42 C416.63 206.03, 407.17 218.17, 386.29 216.42 M386.29 216.42 C255.4 215.89, 124.54 216.42, 32 216.42 M386.29 216.42 C255.9 215.2, 126.05 215.32, 32 216.42 M32 216.42 C11.63 215.16, 1.43 206.72, 0 184.42 M32 216.42 C11.07 217.56, 1.24 205.45, 0 184.42 M0 184.42 C-1.66 149.56, 2.07 114.47, 0 32 M0 184.42 C0.12 134.3, 0.58 83.93, 0 32 M0 32 C1.21 10.22, 11.29 1.95, 32 0 M0 32 C2.13 9.79, 12.28 -1.95, 32 0" stroke="#1e1e1e" stroke-width="2" fill="none"></path></g><g stroke-linecap="round" transform="translate(5879.1309440562245 541.9421521222955) rotate(0 231.5234375 238.77685546875)"><path d="M32 0 C127.7 -0.07, 226.63 0.32, 431.05 0 M32 0 C148.51 -0.68, 264.31 -1.62, 431.05 0 M431.05 0 C451.91 -1.39, 462.3 11.91, 463.05 32 M431.05 0 C450.27 1.5, 464.69 12.73, 463.05 32 M463.05 32 C465.25 158.03, 463.36 284.34, 463.05 445.55 M463.05 32 C462.42 184.88, 462.63 337.04, 463.05 445.55 M463.05 445.55 C463.57 465.96, 454.22 478.07, 431.05 477.55 M463.05 445.55 C464.56 466.32, 454.68 477.85, 431.05 477.55 M431.05 477.55 C307.69 478.02, 183.64 478.05, 32 477.55 M431.05 477.55 C329.82 478.47, 228.57 478.16, 32 477.55 M32 477.55 C11 477.19, -1.24 468.41, 0 445.55 M32 477.55 C9.94 478.79, 1.76 467.17, 0 445.55 M0 445.55 C-0.88 337.75, -2.92 231.74, 0 32 M0 445.55 C-2.27 287.95, -2.5 129.35, 0 32 M0 32 C1.54 8.82, 10.86 -1.13, 32 0 M0 32 C-1.25 12.43, 12.77 0.46, 32 0" stroke="#1e1e1e" stroke-width="2" fill="none"></path></g><g stroke-linecap="round" transform="translate(5953.3838737437245 809.9060193097955) rotate(0 145.3515625 67.15576171875)"><path d="M32 0 C101.24 0.59, 168.04 0.18, 258.7 0 M32 0 C104.19 -0.28, 174.86 -1.02, 258.7 0 M258.7 0 C281.55 1.68, 290.47 12.43, 290.7 32 M258.7 0 C278.32 -0.29, 291.95 11.2, 290.7 32 M290.7 32 C292.01 60.48, 289.97 84.53, 290.7 102.31 M290.7 32 C290.77 52.75, 290.96 74.73, 290.7 102.31 M290.7 102.31 C291.1 122.22, 281 135.73, 258.7 134.31 M290.7 102.31 C292.5 124.09, 281.26 136.5, 258.7 134.31 M258.7 134.31 C185.13 132.83, 110.21 134.25, 32 134.31 M258.7 134.31 C197.98 133.18, 136.57 132.21, 32 134.31 M32 134.31 C12.44 135.36, -0.13 123.79, 0 102.31 M32 134.31 C11.19 136.29, 0.43 121.72, 0 102.31 M0 102.31 C0.94 83.36, -0.37 62.14, 0 32 M0 102.31 C-0.84 84.84, -0.79 69.19, 0 32 M0 32 C-0.06 11.06, 9.67 -0.62, 32 0 M0 32 C-1.43 10.07, 8.87 2.24, 32 0" stroke="#1e1e1e" stroke-width="2" fill="none"></path></g><g transform="translate(5981.8750846812245 852.2253552472955) rotate(0 117.34996032714844 12.5)"><text x="0" y="17.52" font-family="Virgil, Segoe UI Emoji" font-size="20px" fill="#1e1e1e" text-anchor="start" style="white-space: pre;" direction="ltr" dominant-baseline="alphabetic">基于内存，MemTable实现</text></g><g stroke-linecap="round" transform="translate(5932.7930534312245 604.6862927472955) rotate(0 171.93359375 64.091796875)"><path d="M32 0 C114.52 -2.61, 192.61 -1.24, 311.87 0 M32 0 C137.19 2.09, 240.51 2.61, 311.87 0 M311.87 0 C334.79 -0.61, 343.89 12.36, 343.87 32 M311.87 0 C332.78 -1.55, 345.54 12.39, 343.87 32 M343.87 32 C346.07 53.4, 344.18 74.67, 343.87 96.18 M343.87 32 C343.88 48.2, 344.71 63.79, 343.87 96.18 M343.87 96.18 C344.84 117.71, 334.06 129.53, 311.87 128.18 M343.87 96.18 C344.89 118.95, 333.4 129.85, 311.87 128.18 M311.87 128.18 C208.51 126.31, 103.66 125.16, 32 128.18 M311.87 128.18 C242.28 130, 171.57 130.64, 32 128.18 M32 128.18 C9.14 127.23, 0.89 118.39, 0 96.18 M32 128.18 C10.7 129.77, 1.89 118.55, 0 96.18 M0 96.18 C1.76 82.04, 0.79 66.37, 0 32 M0 96.18 C-0.38 76.61, -1.12 56.58, 0 32 M0 32 C-0.75 11.05, 10.57 1.22, 32 0 M0 32 C-0.39 9.91, 12.34 0.36, 32 0" stroke="#1e1e1e" stroke-width="2" fill="none"></path></g><g transform="translate(6022.4366081187245 651.8591443097955) rotate(0 114.21997833251953 12.5)"><text x="0" y="17.52" font-family="Virgil, Segoe UI Emoji" font-size="20px" fill="#1e1e1e" text-anchor="start" style="white-space: pre;" direction="ltr" dominant-baseline="alphabetic">基于文件存储， seld实现</text></g><g stroke-linecap="round"><g transform="translate(5107.165557472398 830.2877613789456) rotate(0 381.47097454191317 -61.864638807985145)"><path d="M0.58 -0.65 C127.85 -21.16, 636.27 -103.43, 763.16 -124.04 M-0.58 1.62 C126.6 -18.63, 634.85 -101.85, 762.33 -122.66" stroke="#1e1e1e" stroke-width="2" fill="none"></path></g><g transform="translate(5107.165557472398 830.2877613789456) rotate(0 381.47097454191317 -61.864638807985145)"><path d="M740.52 -110.43 C745.19 -113.34, 751.41 -118.55, 762.33 -122.66 M740.52 -110.43 C745.27 -113.24, 750.9 -115.89, 762.33 -122.66" stroke="#1e1e1e" stroke-width="2" fill="none"></path></g><g transform="translate(5107.165557472398 830.2877613789456) rotate(0 381.47097454191317 -61.864638807985145)"><path d="M737.76 -127.31 C743.01 -125.86, 749.94 -126.7, 762.33 -122.66 M737.76 -127.31 C743.29 -125.82, 749.62 -124.18, 762.33 -122.66" stroke="#1e1e1e" stroke-width="2" fill="none"></path></g></g><mask></mask><g transform="translate(5489.12440825859 666.4416744809257) rotate(0 146.46994018554688 25)"><text x="0" y="17.52" font-family="Virgil, Segoe UI Emoji" font-size="20px" fill="#1e1e1e" text-anchor="start" style="white-space: pre;" direction="ltr" dominant-baseline="alphabetic">定义一个Storage trait</text><text x="0" y="42.519999999999996" font-family="Virgil, Segoe UI Emoji" font-size="20px" fill="#1e1e1e" text-anchor="start" style="white-space: pre;" direction="ltr" dominant-baseline="alphabetic">包含get， set， del等基本操作</text></g><g stroke-linecap="round"><g transform="translate(3290.819099970823 52.05078125) rotate(0 -71.62353515625 35.10986328125)"><path d="M1.09 -0.46 C-23.04 10.96, -119.77 57.1, -143.67 69.05 M0.2 -1.74 C-24.22 9.73, -121.05 58.1, -144.84 69.98" stroke="#1e1e1e" stroke-width="2" fill="none"></path></g><g transform="translate(3290.819099970823 52.05078125) rotate(0 -71.62353515625 35.10986328125)"><path d="M-127.63 51.84 C-135.05 58.41, -142.99 67.81, -144.84 69.98 M-127.63 51.84 C-133.58 59.09, -141.05 65.14, -144.84 69.98" stroke="#1e1e1e" stroke-width="2" fill="none"></path></g><g transform="translate(3290.819099970823 52.05078125) rotate(0 -71.62353515625 35.10986328125)"><path d="M-120 67.14 C-130.49 67.78, -141.41 71.18, -144.84 69.98 M-120 67.14 C-129.04 68.49, -139.48 68.6, -144.84 69.98" stroke="#1e1e1e" stroke-width="2" fill="none"></path></g></g><mask></mask><g transform="translate(3148.455818720823 10) rotate(0 40 12.5)"><text x="0" y="17.52" font-family="Virgil, Segoe UI Emoji" font-size="20px" fill="#1e1e1e" text-anchor="start" style="white-space: pre;" direction="ltr" dominant-baseline="alphabetic">逻辑流程</text></g><g stroke-linecap="round"><g transform="translate(3379.129646845823 37.3486328125) rotate(0 91.39034399563229 46.304957714706035)"><path d="M1.06 -0.42 C31.41 15.01, 153.02 75.96, 183.17 91.41 M0.16 -1.69 C30.29 13.95, 151.71 76.46, 182.42 92.32" stroke="#1e1e1e" stroke-width="2" fill="none"></path></g><g transform="translate(3379.129646845823 37.3486328125) rotate(0 91.39034399563229 46.304957714706035)"><path d="M157.62 89.15 C166.56 90.81, 174.93 90.06, 182.42 92.32 M157.62 89.15 C164.22 89.62, 171.6 90.76, 182.42 92.32" stroke="#1e1e1e" stroke-width="2" fill="none"></path></g><g transform="translate(3379.129646845823 37.3486328125) rotate(0 91.39034399563229 46.304957714706035)"><path d="M165.46 73.95 C171.19 81.61, 176.51 86.78, 182.42 92.32 M165.46 73.95 C169.91 78.63, 175.14 83.93, 182.42 92.32" stroke="#1e1e1e" stroke-width="2" fill="none"></path></g></g><mask></mask><g transform="translate(3442.991951533323 15.9814453125) rotate(0 60 12.5)"><text x="0" y="17.52" font-family="Virgil, Segoe UI Emoji" font-size="20px" fill="#1e1e1e" text-anchor="start" style="white-space: pre;" direction="ltr" dominant-baseline="alphabetic">服务内部结构</text></g><g stroke-linecap="round"><g transform="translate(4699.893170127736 600.0380805194336) rotate(0 -813.5433827347065 -175.87076718052873)"><path d="M-0.14 -0.18 C-176.6 -58.88, -787.04 -353.46, -1058.16 -353.18 C-1329.28 -352.89, -1531.89 -57.58, -1626.87 1.53" stroke="#1e1e1e" stroke-width="2.5" fill="none" stroke-dasharray="8 10"></path></g><g transform="translate(4699.893170127736 600.0380805194336) rotate(0 -813.5433827347065 -175.87076718052873)"><path d="M-1615.18 -20.57 C-1619.76 -11.16, -1624.3 -4.78, -1626.87 1.53" stroke="#1e1e1e" stroke-width="2.5" fill="none"></path></g><g transform="translate(4699.893170127736 600.0380805194336) rotate(0 -813.5433827347065 -175.87076718052873)"><path d="M-1603.71 -7.89 C-1612.19 -2.92, -1620.74 -0.98, -1626.87 1.53" stroke="#1e1e1e" stroke-width="2.5" fill="none"></path></g></g><mask></mask><g transform="translate(3263.571878299805 376.05350395059963) rotate(0 50 12.5)"><text x="0" y="17.52" font-family="Virgil, Segoe UI Emoji" font-size="20px" fill="#1e1e1e" text-anchor="start" style="white-space: pre;" direction="ltr" dominant-baseline="alphabetic">穿插着执行</text></g><g stroke-linecap="round" transform="translate(4739.503159992484 760.3511931671858) rotate(0 174.30847405567465 56.706129017180444)"><path d="M28.35 0 C139.89 -2.19, 255.06 -1.78, 320.26 0 M28.35 0 C117.38 -0.84, 206.32 -1.17, 320.26 0 M320.26 0 C339.82 0.72, 349.29 9.12, 348.62 28.35 M320.26 0 C339.1 0, 346.75 10.17, 348.62 28.35 M348.62 28.35 C350.36 50.24, 348.81 71.32, 348.62 85.06 M348.62 28.35 C349.14 48.45, 348.65 68.92, 348.62 85.06 M348.62 85.06 C349.95 103.32, 338.5 113.74, 320.26 113.41 M348.62 85.06 C349.01 104.12, 340.29 112.76, 320.26 113.41 M320.26 113.41 C211.04 113.91, 103.09 112.33, 28.35 113.41 M320.26 113.41 C222.71 111.17, 126.44 112.33, 28.35 113.41 M28.35 113.41 C8.14 113.72, 0.85 102.02, 0 85.06 M28.35 113.41 C9.76 114.69, -1.35 104.25, 0 85.06 M0 85.06 C-0.26 64.2, 1.45 40.8, 0 28.35 M0 85.06 C-0.09 68.79, 0.52 53.15, 0 28.35 M0 28.35 C-1.91 9.92, 8.3 -1.33, 28.35 0 M0 28.35 C2.04 9.97, 10.11 1.34, 28.35 0" stroke="#1e1e1e" stroke-width="2" fill="none"></path></g><g transform="translate(4863.483582393212 797.1111405507183) rotate(0 26.389968872070312 12.5)"><text x="0" y="17.52" font-family="Virgil, Segoe UI Emoji" font-size="20px" fill="#1e1e1e" text-anchor="start" style="white-space: pre;" direction="ltr" dominant-baseline="alphabetic">store</text></g><g stroke-linecap="round" transform="translate(4442.607893476215 168.4088589337125) rotate(0 465.05297248623856 777.2818609991813)"><path d="M32 0 C227.68 0.48, 425.05 0.64, 898.11 0 M32 0 C331.42 -1.87, 630.46 -1.85, 898.11 0 M898.11 0 C920.57 -0.76, 931.05 9.98, 930.11 32 M898.11 0 C919.63 1.95, 928.66 10.81, 930.11 32 M930.11 32 C928.97 513.81, 930.19 993.98, 930.11 1522.56 M930.11 32 C930.71 401.43, 931.03 770.96, 930.11 1522.56 M930.11 1522.56 C931.86 1541.92, 921.1 1552.75, 898.11 1554.56 M930.11 1522.56 C927.84 1546.04, 921 1556.15, 898.11 1554.56 M898.11 1554.56 C584.7 1551.16, 269.6 1551.8, 32 1554.56 M898.11 1554.56 C690 1554.3, 481.83 1553.92, 32 1554.56 M32 1554.56 C10.17 1556, 0.54 1542.76, 0 1522.56 M32 1554.56 C9.58 1554.7, -1.76 1544.64, 0 1522.56 M0 1522.56 C-2.79 1173.84, -1.67 824.52, 0 32 M0 1522.56 C-3.32 1194.56, -2.67 867.11, 0 32 M0 32 C-0.03 8.68, 9.09 0.99, 32 0 M0 32 C0.08 9.98, 12.7 -1.85, 32 0" stroke="#1e1e1e" stroke-width="2" fill="none"></path></g><g transform="translate(4609.425194328638 214.76989532653818) rotate(0 40 12.5)"><text x="0" y="17.52" font-family="Virgil, Segoe UI Emoji" font-size="20px" fill="#1e1e1e" text-anchor="start" style="white-space: pre;" direction="ltr" dominant-baseline="alphabetic">结构组成</text></g><g transform="translate(4021.825584460314 914.3260772452534) rotate(0 40.51995849609375 12.5)"><text x="0" y="17.52" font-family="Virgil, Segoe UI Emoji" font-size="20px" fill="#1e1e1e" text-anchor="start" style="white-space: pre;" direction="ltr" dominant-baseline="alphabetic">dispatch</text></g><g stroke-linecap="round" transform="translate(3975.7367641241835 879.1570435052772) rotate(0 130.95464166716715 49.793874321427865)"><path d="M24.9 0 C106.4 1.99, 187.12 0.58, 237.01 0 M24.9 0 C69.55 1.49, 114.51 0.82, 237.01 0 M237.01 0 C253.5 1.06, 261.96 10.11, 261.91 24.9 M237.01 0 C254.41 0.36, 263.59 6.75, 261.91 24.9 M261.91 24.9 C261.16 40.53, 260.14 59.12, 261.91 74.69 M261.91 24.9 C262.7 39.59, 261.82 55.49, 261.91 74.69 M261.91 74.69 C261.83 90.41, 251.72 97.84, 237.01 99.59 M261.91 74.69 C263.48 92.14, 253.15 101.69, 237.01 99.59 M237.01 99.59 C163.11 101.13, 89.49 98.95, 24.9 99.59 M237.01 99.59 C187.08 97.35, 137.55 98.34, 24.9 99.59 M24.9 99.59 C8.71 98.06, -0.16 90.66, 0 74.69 M24.9 99.59 C6.69 97.34, -0.68 92.81, 0 74.69 M0 74.69 C0.38 57.94, 1.22 41.12, 0 24.9 M0 74.69 C-0.5 63.04, 0.3 52.24, 0 24.9 M0 24.9 C-0.66 6.93, 8.82 1.55, 24.9 0 M0 24.9 C-0.99 6.31, 7.52 -0.41, 24.9 0" stroke="#1e1e1e" stroke-width="2" fill="none"></path></g><g stroke-linecap="round" transform="translate(3982.16275689328 1004.1422419156407) rotate(0 131.45372384982852 52.805577682530156)"><path d="M26.4 0 C92.83 0.31, 157.8 -1.05, 236.5 0 M26.4 0 C109.85 0.95, 192.52 0.3, 236.5 0 M236.5 0 C256.07 0.02, 261.25 7.46, 262.91 26.4 M236.5 0 C256.29 -1.86, 261.4 8.41, 262.91 26.4 M262.91 26.4 C262 42.24, 261.93 58.26, 262.91 79.21 M262.91 26.4 C262.36 45.91, 262.44 66.22, 262.91 79.21 M262.91 79.21 C262.24 95.65, 254.62 107.07, 236.5 105.61 M262.91 79.21 C262.35 94.88, 252.91 107.61, 236.5 105.61 M236.5 105.61 C167.36 107.86, 96.92 104.83, 26.4 105.61 M236.5 105.61 C186.58 103.53, 136.4 104.91, 26.4 105.61 M26.4 105.61 C6.95 104.48, -0.88 98.44, 0 79.21 M26.4 105.61 C10.7 105.8, 1.73 95.69, 0 79.21 M0 79.21 C2.09 61.65, -1.17 41.98, 0 26.4 M0 79.21 C-0.01 65.08, -0.4 52.03, 0 26.4 M0 26.4 C0.9 10.76, 10.55 -0.92, 26.4 0 M0 26.4 C1.37 9.55, 7.33 2.25, 26.4 0" stroke="#1e1e1e" stroke-width="2" fill="none"></path></g><g transform="translate(4028.3459368123436 1047.6436280640887) rotate(0 82.62992095947266 12.5)"><text x="0" y="17.52" font-family="Virgil, Segoe UI Emoji" font-size="20px" fill="#1e1e1e" text-anchor="start" style="white-space: pre;" direction="ltr" dominant-baseline="alphabetic">dispatch_stream</text></g><g stroke-linecap="round" transform="translate(3580.027018727602 942.3381300503372) rotate(0 97.44890259944032 55.08009321394468)"><path d="M27.54 0 C63.33 0.02, 103.73 -1.19, 167.36 0 M27.54 0 C79.7 0.06, 132.02 -0.51, 167.36 0 M167.36 0 C187.48 -0.82, 195.19 8.81, 194.9 27.54 M167.36 0 C187.28 -0.92, 195.12 8.32, 194.9 27.54 M194.9 27.54 C195.8 42.52, 197.12 59.69, 194.9 82.62 M194.9 27.54 C194.6 44.41, 195.63 59.83, 194.9 82.62 M194.9 82.62 C195.38 100.5, 187.53 108.61, 167.36 110.16 M194.9 82.62 C192.91 101.56, 185.16 110.9, 167.36 110.16 M167.36 110.16 C126.02 111.9, 81.79 112.95, 27.54 110.16 M167.36 110.16 C113.14 110.49, 59.26 110.74, 27.54 110.16 M27.54 110.16 C9.75 111.16, -1.15 101.58, 0 82.62 M27.54 110.16 C6.95 107.97, -1.42 101.74, 0 82.62 M0 82.62 C-1.55 62.18, 0.81 41.24, 0 27.54 M0 82.62 C-0.44 71.62, -0.15 59.48, 0 27.54 M0 27.54 C1.72 9.25, 7.93 0.2, 27.54 0 M0 27.54 C-1.66 11.45, 8.1 1.54, 27.54 0" stroke="#1e1e1e" stroke-width="2" fill="none"></path></g><g transform="translate(3633.013136794147 984.1748988116467) rotate(0 32.90996551513672 12.5)"><text x="0" y="17.52" font-family="Virgil, Segoe UI Emoji" font-size="20px" fill="#1e1e1e" text-anchor="start" style="white-space: pre;" direction="ltr" dominant-baseline="alphabetic">excute</text></g><g stroke-linecap="round"><g transform="translate(3559.736826891167 992.6490880306127) rotate(0 -201.6391231479074 -12.446331871022835)"><path d="M1.06 1 C-66.05 -3.34, -336.23 -21.3, -403.72 -25.78 M0.15 0.48 C-67.06 -3.76, -337.39 -20.45, -404.9 -24.71" stroke="#1e1e1e" stroke-width="2" fill="none"></path></g><g transform="translate(3559.736826891167 992.6490880306127) rotate(0 -201.6391231479074 -12.446331871022835)"><path d="M-380.93 -31.78 C-384.27 -30.83, -392.44 -29.6, -404.9 -24.71 M-380.93 -31.78 C-385.41 -29.97, -390.73 -29.14, -404.9 -24.71" stroke="#1e1e1e" stroke-width="2" fill="none"></path></g><g transform="translate(3559.736826891167 992.6490880306127) rotate(0 -201.6391231479074 -12.446331871022835)"><path d="M-381.99 -14.71 C-385.15 -17.35, -393.1 -19.7, -404.9 -24.71 M-381.99 -14.71 C-386.11 -16.65, -391.2 -19.55, -404.9 -24.71" stroke="#1e1e1e" stroke-width="2" fill="none"></path></g></g><mask></mask><g transform="translate(3298.635219685116 956.8677535220893) rotate(0 70 12.5)"><text x="0" y="17.52" font-family="Virgil, Segoe UI Emoji" font-size="20px" fill="#1e1e1e" text-anchor="start" style="white-space: pre;" direction="ltr" dominant-baseline="alphabetic">提供给服务执行</text></g><g stroke-linecap="round"><g transform="translate(4244.821117402365 922.8488082255859) rotate(0 163.7233542335946 -66.36120657946435)"><path d="M-0.56 0.13 C54.27 -21.81, 273.35 -109.99, 328.21 -132.17 M1.35 -0.85 C56.16 -23.09, 273.15 -112.18, 327.66 -134" stroke="#1e1e1e" stroke-width="2" fill="none"></path></g><g transform="translate(4244.821117402365 922.8488082255859) rotate(0 163.7233542335946 -66.36120657946435)"><path d="M309.11 -117.23 C313.73 -119.79, 318.78 -123.06, 327.66 -134 M309.11 -117.23 C313.33 -122, 320.37 -126.2, 327.66 -134" stroke="#1e1e1e" stroke-width="2" fill="none"></path></g><g transform="translate(4244.821117402365 922.8488082255859) rotate(0 163.7233542335946 -66.36120657946435)"><path d="M302.68 -133.08 C308.72 -131.91, 315.28 -131.48, 327.66 -134 M302.68 -133.08 C308.72 -133.41, 317.56 -133.16, 327.66 -134" stroke="#1e1e1e" stroke-width="2" fill="none"></path></g></g><mask></mask><g mask="url(#mask-B3aizCNltpeYfzA81s4Hx)" stroke-linecap="round"><g transform="translate(4255.662780563493 1093.2947142818703) rotate(0 327.09922526133914 164.37385963871327)"><path d="M-1.06 -0.73 C108.09 54.1, 544.97 274.14, 654.03 329.23 M0.58 1.5 C109.64 55.94, 543.81 272.93, 653 327.36" stroke="#1e1e1e" stroke-width="2" fill="none"></path></g><g transform="translate(4255.662780563493 1093.2947142818703) rotate(0 327.09922526133914 164.37385963871327)"><path d="M628.16 324.52 C632.61 325.11, 640.29 324.54, 653 327.36 M628.16 324.52 C638.62 325.28, 646.58 327.76, 653 327.36" stroke="#1e1e1e" stroke-width="2" fill="none"></path></g><g transform="translate(4255.662780563493 1093.2947142818703) rotate(0 327.09922526133914 164.37385963871327)"><path d="M635.8 309.22 C638.54 313.23, 644.48 316.15, 653 327.36 M635.8 309.22 C643.36 315.89, 648.35 324.34, 653 327.36" stroke="#1e1e1e" stroke-width="2" fill="none"></path></g></g><mask id="mask-B3aizCNltpeYfzA81s4Hx"><rect x="0" y="0" fill="#fff" width="5009.861231086171" height="1522.0424335592968"></rect><rect x="4434.212094325809" y="1232.6685739205834" fill="#000" width="297.0998229980469" height="50" opacity="1"></rect></mask><g transform="translate(4434.212094325808 1232.6685739205836) rotate(0 147.93682033531354 24.876436566188943)"><text x="148.54991149902344" y="17.52" font-family="Virgil, Segoe UI Emoji" font-size="20px" fill="#1e1e1e" text-anchor="middle" style="white-space: pre;" direction="ltr" dominant-baseline="alphabetic">trait Topic, 订阅服务抽象</text><text x="148.54991149902344" y="42.519999999999996" font-family="Virgil, Segoe UI Emoji" font-size="20px" fill="#1e1e1e" text-anchor="middle" style="white-space: pre;" direction="ltr" dominant-baseline="alphabetic">包含pubish, sub和unsub抽象方法</text></g><g stroke-linecap="round"><g transform="translate(3789.1510346727982 1001.7588587931856) rotate(0 89.67114240442675 -31.35286842398952)"><path d="M-0.67 0.82 C29.39 -9.57, 149.72 -51.89, 179.82 -62.51 M1.18 0.2 C31.17 -10.56, 149.4 -54.21, 179.13 -64.53" stroke="#1e1e1e" stroke-width="2" fill="none"></path></g><g transform="translate(3789.1510346727982 1001.7588587931856) rotate(0 89.67114240442675 -31.35286842398952)"><path d="M159.92 -48.54 C166.19 -51.69, 170.03 -55.49, 179.13 -64.53 M159.92 -48.54 C164.63 -52.47, 171.05 -56.57, 179.13 -64.53" stroke="#1e1e1e" stroke-width="2" fill="none"></path></g><g transform="translate(3789.1510346727982 1001.7588587931856) rotate(0 89.67114240442675 -31.35286842398952)"><path d="M154.13 -64.63 C161.85 -63.66, 167.16 -63.37, 179.13 -64.53 M154.13 -64.63 C160.5 -63.94, 168.57 -63.48, 179.13 -64.53" stroke="#1e1e1e" stroke-width="2" fill="none"></path></g></g><mask></mask><g stroke-linecap="round"><g transform="translate(3791.5655162203107 1018.5131132321671) rotate(0 94.0236193179494 15.978485015215398)"><path d="M0.01 -0.82 C31.36 4.28, 157.21 26.12, 188.52 31.44 M-1.45 1.37 C29.75 6.55, 156.42 27.61, 187.81 32.7" stroke="#1e1e1e" stroke-width="2" fill="none"></path></g><g transform="translate(3791.5655162203107 1018.5131132321671) rotate(0 94.0236193179494 15.978485015215398)"><path d="M163.25 37.32 C170.05 36.56, 178.75 33.85, 187.81 32.7 M163.25 37.32 C169.78 36.06, 173.61 35.82, 187.81 32.7" stroke="#1e1e1e" stroke-width="2" fill="none"></path></g><g transform="translate(3791.5655162203107 1018.5131132321671) rotate(0 94.0236193179494 15.978485015215398)"><path d="M166.02 20.45 C172.03 25.32, 179.79 28.24, 187.81 32.7 M166.02 20.45 C171.92 23.02, 175.13 26.6, 187.81 32.7" stroke="#1e1e1e" stroke-width="2" fill="none"></path></g></g><mask></mask><g transform="translate(3827.7442786649726 954.710211272001) rotate(0 16.949989318847656 12.5)"><text x="0" y="17.52" font-family="Virgil, Segoe UI Emoji" font-size="20px" fill="#1e1e1e" text-anchor="start" style="white-space: pre;" direction="ltr" dominant-baseline="alphabetic">call</text></g><g transform="translate(3582.5526091604884 435.5028197105466) rotate(0 287.7999267578125 25)"><text x="0" y="17.52" font-family="Virgil, Segoe UI Emoji" font-size="20px" fill="#1e1e1e" text-anchor="start" style="white-space: pre;" direction="ltr" dominant-baseline="alphabetic">trait CommandService， 对Command处理的抽象</text><text x="0" y="42.519999999999996" font-family="Virgil, Segoe UI Emoji" font-size="20px" fill="#1e1e1e" text-anchor="start" style="white-space: pre;" direction="ltr" dominant-baseline="alphabetic">如果要支持一个Command，则需要给这个Command实现这个trait</text></g><g transform="translate(3615.389558206647 520.7286537444405) rotate(0 30.879959106445312 62.5)"><text x="0" y="17.52" font-family="Virgil, Segoe UI Emoji" font-size="20px" fill="#1e1e1e" text-anchor="start" style="white-space: pre;" direction="ltr" dominant-baseline="alphabetic">get</text><text x="0" y="42.519999999999996" font-family="Virgil, Segoe UI Emoji" font-size="20px" fill="#1e1e1e" text-anchor="start" style="white-space: pre;" direction="ltr" dominant-baseline="alphabetic">set</text><text x="0" y="67.52" font-family="Virgil, Segoe UI Emoji" font-size="20px" fill="#1e1e1e" text-anchor="start" style="white-space: pre;" direction="ltr" dominant-baseline="alphabetic">del</text><text x="0" y="92.52" font-family="Virgil, Segoe UI Emoji" font-size="20px" fill="#1e1e1e" text-anchor="start" style="white-space: pre;" direction="ltr" dominant-baseline="alphabetic">publish</text><text x="0" y="117.52" font-family="Virgil, Segoe UI Emoji" font-size="20px" fill="#1e1e1e" text-anchor="start" style="white-space: pre;" direction="ltr" dominant-baseline="alphabetic">.....</text></g><g transform="translate(4289.818594501433 912.0178669437947) rotate(0 182.18992614746094 100)"><text x="0" y="17.52" font-family="Virgil, Segoe UI Emoji" font-size="20px" fill="#1e1e1e" text-anchor="start" style="white-space: pre;" direction="ltr" dominant-baseline="alphabetic">dispatch方法就是匹配接受到的Command</text><text x="0" y="42.519999999999996" font-family="Virgil, Segoe UI Emoji" font-size="20px" fill="#1e1e1e" text-anchor="start" style="white-space: pre;" direction="ltr" dominant-baseline="alphabetic"></text><text x="0" y="67.52" font-family="Virgil, Segoe UI Emoji" font-size="20px" fill="#1e1e1e" text-anchor="start" style="white-space: pre;" direction="ltr" dominant-baseline="alphabetic">match CommandRequest:</text><text x="0" y="92.52" font-family="Virgil, Segoe UI Emoji" font-size="20px" fill="#1e1e1e" text-anchor="start" style="white-space: pre;" direction="ltr" dominant-baseline="alphabetic">del  =&gt;  del.excute()</text><text x="0" y="117.52" font-family="Virgil, Segoe UI Emoji" font-size="20px" fill="#1e1e1e" text-anchor="start" style="white-space: pre;" direction="ltr" dominant-baseline="alphabetic">set  =&gt;  set.excute()</text><text x="0" y="142.52" font-family="Virgil, Segoe UI Emoji" font-size="20px" fill="#1e1e1e" text-anchor="start" style="white-space: pre;" direction="ltr" dominant-baseline="alphabetic">get  =&gt;  get.excute()</text><text x="0" y="167.52" font-family="Virgil, Segoe UI Emoji" font-size="20px" fill="#1e1e1e" text-anchor="start" style="white-space: pre;" direction="ltr" dominant-baseline="alphabetic">publish  =&gt;  publish.excute()</text><text x="0" y="192.52" font-family="Virgil, Segoe UI Emoji" font-size="20px" fill="#1e1e1e" text-anchor="start" style="white-space: pre;" direction="ltr" dominant-baseline="alphabetic">subscrible  =&gt;  subscrible.excute()</text></g><g transform="translate(4678.746088028602 1513.0195034072826) rotate(0 292.97979736328125 50.00000000000006)"><text x="0" y="17.52" font-family="Virgil, Segoe UI Emoji" font-size="20px" fill="#1e1e1e" text-anchor="start" style="white-space: pre;" direction="ltr" dominant-baseline="alphabetic">    /// 所有的主题列表：主题: 订阅者id</text><text x="0" y="42.519999999999996" font-family="Virgil, Segoe UI Emoji" font-size="20px" fill="#1e1e1e" text-anchor="start" style="white-space: pre;" direction="ltr" dominant-baseline="alphabetic">    topics:  DashMap&lt;String, Dashset&lt;u32&gt;&gt;</text><text x="0" y="67.52" font-family="Virgil, Segoe UI Emoji" font-size="20px" fill="#1e1e1e" text-anchor="start" style="white-space: pre;" direction="ltr" dominant-baseline="alphabetic">    /// 订阅者, id 和它的Sender</text><text x="0" y="92.52" font-family="Virgil, Segoe UI Emoji" font-size="20px" fill="#1e1e1e" text-anchor="start" style="white-space: pre;" direction="ltr" dominant-baseline="alphabetic">    subscriptions: id: mpsc::Sender&lt;Arc&lt;CommandResponse&gt;&gt;&gt;,</text></g><g transform="translate(3570.98892669602 1480.0958783580752) rotate(0 287.7999267578125 25)"><text x="0" y="17.52" font-family="Virgil, Segoe UI Emoji" font-size="20px" fill="#1e1e1e" text-anchor="start" style="white-space: pre;" direction="ltr" dominant-baseline="alphabetic">trait TopicService， 和上面平级的一个对Command处理的抽象</text><text x="0" y="42.519999999999996" font-family="Virgil, Segoe UI Emoji" font-size="20px" fill="#1e1e1e" text-anchor="start" style="white-space: pre;" direction="ltr" dominant-baseline="alphabetic">如果要支持一个Command，则需要给这个Command实现这个trait</text></g><g transform="translate(3595.021000126767 1544.2907157442883) rotate(0 54.029937744140625 37.5)"><text x="0" y="17.52" font-family="Virgil, Segoe UI Emoji" font-size="20px" fill="#1e1e1e" text-anchor="start" style="white-space: pre;" direction="ltr" dominant-baseline="alphabetic">subscribe</text><text x="0" y="42.519999999999996" font-family="Virgil, Segoe UI Emoji" font-size="20px" fill="#1e1e1e" text-anchor="start" style="white-space: pre;" direction="ltr" dominant-baseline="alphabetic">unsubscribe</text><text x="0" y="67.52" font-family="Virgil, Segoe UI Emoji" font-size="20px" fill="#1e1e1e" text-anchor="start" style="white-space: pre;" direction="ltr" dominant-baseline="alphabetic">publish</text></g><g stroke-linecap="round"><g transform="translate(3918.661497583924 1452.1038701525963) rotate(0 84.14205721202484 -163.5820870663763)"><path d="M-0.68 0.36 C27.36 -54.46, 141.06 -273.71, 169.12 -328.31" stroke="#1e1e1e" stroke-width="2.5" fill="none" stroke-dasharray="8 10"></path></g><g transform="translate(3918.661497583924 1452.1038701525963) rotate(0 84.14205721202484 -163.5820870663763)"><path d="M165.94 -303.52 C167.61 -311.39, 166.28 -323.02, 169.12 -328.31" stroke="#1e1e1e" stroke-width="2.5" fill="none"></path></g><g transform="translate(3918.661497583924 1452.1038701525963) rotate(0 84.14205721202484 -163.5820870663763)"><path d="M150.74 -311.37 C158.14 -316.21, 162.5 -324.9, 169.12 -328.31" stroke="#1e1e1e" stroke-width="2.5" fill="none"></path></g></g><mask></mask><g stroke-linecap="round"><g transform="translate(3708.1143801857447 593.6412008077525) rotate(0 158.4743578496043 133.9152032865551)"><path d="M0.54 0.26 C53.35 44.97, 264.92 222.88, 317.76 267.6" stroke="#1e1e1e" stroke-width="2.5" fill="none" stroke-dasharray="8 10"></path></g><g transform="translate(3708.1143801857447 593.6412008077525) rotate(0 158.4743578496043 133.9152032865551)"><path d="M294.29 258.99 C303.55 263.49, 311.6 266.47, 317.76 267.6" stroke="#1e1e1e" stroke-width="2.5" fill="none"></path></g><g transform="translate(3708.1143801857447 593.6412008077525) rotate(0 158.4743578496043 133.9152032865551)"><path d="M305.31 245.92 C310.34 255.41, 314.22 263.33, 317.76 267.6" stroke="#1e1e1e" stroke-width="2.5" fill="none"></path></g></g><mask></mask><g transform="translate(795.3658569878835 163.82314623679792) rotate(0 60 112.5)"><text x="0" y="17.52" font-family="Virgil, Segoe UI Emoji" font-size="20px" fill="#1e1e1e" text-anchor="start" style="white-space: pre;" direction="ltr" dominant-baseline="alphabetic">统一网络协议</text><text x="0" y="42.519999999999996" font-family="Virgil, Segoe UI Emoji" font-size="20px" fill="#1e1e1e" text-anchor="start" style="white-space: pre;" direction="ltr" dominant-baseline="alphabetic">Protocol</text><text x="0" y="67.52" font-family="Virgil, Segoe UI Emoji" font-size="20px" fill="#1e1e1e" text-anchor="start" style="white-space: pre;" direction="ltr" dominant-baseline="alphabetic">Hget</text><text x="0" y="92.52" font-family="Virgil, Segoe UI Emoji" font-size="20px" fill="#1e1e1e" text-anchor="start" style="white-space: pre;" direction="ltr" dominant-baseline="alphabetic">Hset</text><text x="0" y="117.52" font-family="Virgil, Segoe UI Emoji" font-size="20px" fill="#1e1e1e" text-anchor="start" style="white-space: pre;" direction="ltr" dominant-baseline="alphabetic">HgetHgetAll</text><text x="0" y="142.52" font-family="Virgil, Segoe UI Emoji" font-size="20px" fill="#1e1e1e" text-anchor="start" style="white-space: pre;" direction="ltr" dominant-baseline="alphabetic">Hdel</text><text x="0" y="167.52" font-family="Virgil, Segoe UI Emoji" font-size="20px" fill="#1e1e1e" text-anchor="start" style="white-space: pre;" direction="ltr" dominant-baseline="alphabetic">Publish</text><text x="0" y="192.52" font-family="Virgil, Segoe UI Emoji" font-size="20px" fill="#1e1e1e" text-anchor="start" style="white-space: pre;" direction="ltr" dominant-baseline="alphabetic">Subscribe</text><text x="0" y="217.52" font-family="Virgil, Segoe UI Emoji" font-size="20px" fill="#1e1e1e" text-anchor="start" style="white-space: pre;" direction="ltr" dominant-baseline="alphabetic">unsubscrible</text></g></svg>